osim_states
version=1
nRows=4
nColumns=185
inDegrees=yes

# SIMM Motion File Header:
name osim_states
datacolumns 185
datarows 4
otherdata 1
range 0.06529321 0.06597791
endheader
time	platform_rx	platform_ry	platform_rz	platform_ty	pelvis_tilt	pelvis_list	pelvis_rotation	pelvis_tx	pelvis_ty	pelvis_tz	hip_flexion_r	hip_adduction_r	hip_rotation_r	knee_angle_r	patella_r_constrained_knee_angle	ankle_angle_r	subtalar_angle_r	mtp_angle_r	hip_flexion_l	hip_adduction_l	hip_rotation_l	knee_angle_l	patella_l_constrained_knee_angle	ankle_angle_l	subtalar_angle_l	mtp_angle_l	lumbar_extension	lumbar_bending	lumbar_rotation	arm_flex_r	arm_add_r	arm_rot_r	elbow_flex_r	pro_sup_r	wrist_flex_r	wrist_dev_r	arm_flex_l	arm_add_l	arm_rot_l	elbow_flex_l	pro_sup_l	wrist_flex_l	wrist_dev_l	platform_rx_u	platform_ry_u	platform_rz_u	platform_ty_u	pelvis_tilt_u	pelvis_list_u	pelvis_rotation_u	pelvis_tx_u	pelvis_ty_u	pelvis_tz_u	hip_flexion_r_u	hip_adduction_r_u	hip_rotation_r_u	knee_angle_r_u	patella_r_constrained_knee_angle_u	ankle_angle_r_u	subtalar_angle_r_u	mtp_angle_r_u	hip_flexion_l_u	hip_adduction_l_u	hip_rotation_l_u	knee_angle_l_u	patella_l_constrained_knee_angle_u	ankle_angle_l_u	subtalar_angle_l_u	mtp_angle_l_u	lumbar_extension_u	lumbar_bending_u	lumbar_rotation_u	arm_flex_r_u	arm_add_r_u	arm_rot_r_u	elbow_flex_r_u	pro_sup_r_u	wrist_flex_r_u	wrist_dev_r_u	arm_flex_l_u	arm_add_l_u	arm_rot_l_u	elbow_flex_l_u	pro_sup_l_u	wrist_flex_l_u	wrist_dev_l_u	glut_med1_r.activation	glut_med1_r.fiber_length	glut_med2_r.activation	glut_med2_r.fiber_length	glut_med3_r.activation	glut_med3_r.fiber_length	glut_min1_r.activation	glut_min1_r.fiber_length	glut_min2_r.activation	glut_min2_r.fiber_length	glut_min3_r.activation	glut_min3_r.fiber_length	semimem_r.activation	semimem_r.fiber_length	semiten_r.activation	semiten_r.fiber_length	bifemlh_r.activation	bifemlh_r.fiber_length	bifemsh_r.activation	bifemsh_r.fiber_length	sar_r.activation	sar_r.fiber_length	add_long_r.activation	add_long_r.fiber_length	add_brev_r.activation	add_brev_r.fiber_length	add_mag1_r.activation	add_mag1_r.fiber_length	add_mag2_r.activation	add_mag2_r.fiber_length	add_mag3_r.activation	add_mag3_r.fiber_length	tfl_r.activation	tfl_r.fiber_length	pect_r.activation	pect_r.fiber_length	grac_r.activation	grac_r.fiber_length	glut_max1_r.activation	glut_max1_r.fiber_length	glut_max2_r.activation	glut_max2_r.fiber_length	glut_max3_r.activation	glut_max3_r.fiber_length	iliacus_r.activation	iliacus_r.fiber_length	psoas_r.activation	psoas_r.fiber_length	quad_fem_r.activation	quad_fem_r.fiber_length	gem_r.activation	gem_r.fiber_length	peri_r.activation	peri_r.fiber_length	rect_fem_r.activation	rect_fem_r.fiber_length	vas_med_r.activation	vas_med_r.fiber_length	vas_int_r.activation	vas_int_r.fiber_length	vas_lat_r.activation	vas_lat_r.fiber_length	med_gas_r.activation	med_gas_r.fiber_length	lat_gas_r.activation	lat_gas_r.fiber_length	soleus_r.activation	soleus_r.fiber_length	tib_post_r.activation	tib_post_r.fiber_length	flex_dig_r.activation	flex_dig_r.fiber_length	flex_hal_r.activation	flex_hal_r.fiber_length	tib_ant_r.activation	tib_ant_r.fiber_length	per_brev_r.activation	per_brev_r.fiber_length	per_long_r.activation	per_long_r.fiber_length	per_tert_r.activation	per_tert_r.fiber_length	ext_dig_r.activation	ext_dig_r.fiber_length	ext_hal_r.activation	ext_hal_r.fiber_length	ercspn_r.activation	ercspn_r.fiber_length	ercspn_l.activation	ercspn_l.fiber_length	intobl_r.activation	intobl_r.fiber_length	intobl_l.activation	intobl_l.fiber_length	extobl_r.activation	extobl_r.fiber_length	extobl_l.activation	extobl_l.fiber_length
      0.06529321	     30.00000000	      0.00000000	      0.00000000	      0.00000000	    -15.25486322	      5.15649587	     12.89469833	     -0.41697617	      0.90779655	      0.35348070	     50.76728179	     -6.64042853	     -3.02358087	    -59.38087019	    -59.38087019	     27.84030708	     13.31073379	      0.00001318	     52.13915936	     -0.00000000	     -9.99811353	   -101.98648811	   -101.98648811	      6.49999992	      0.00000000	      0.00000000	    -11.35503915	     -6.10606905	     -7.35414368	     -0.00000000	     -8.91003344	      0.00000000	     72.06682857	     46.23690339	     -0.00000000	      4.87402477	      0.00000000	     -8.91003344	     -0.00000000	     72.06682857	     46.23690339	     -0.00000000	      4.87402477	      0.00000000	      0.00000000	      0.00000000	      0.00000000	    -29.37934007	    -45.94266054	   -137.81390170	      0.25672070	     -2.90629453	      0.40977739	    518.01246043	    106.57218028	     90.71621041	   -854.28856409	   -854.28856409	    231.64747798	    214.17156286	      0.00000000	     -0.00000000	     -0.00000000	     -0.00000000	     -0.00000000	      0.00000000	      0.00000000	     -0.00000000	      0.00000000	    -13.70913234	     41.50157546	    156.33710930	     -0.00000000	     -0.00000000	      0.00000000	      0.00000000	     -0.00000000	     -0.00000000	     -0.00000000	      0.00000000	     -0.00000000	     -0.00000000	      0.00000000	      0.00000000	     -0.00000000	      0.00000000	      0.04573004	      0.05014075	      0.21383972	      0.09288646	      0.41823202	      0.07723605	      0.04388272	      0.06851095	      0.06632276	      0.05930474	      0.25096505	      0.04012275	      0.15931162	      0.06958207	      0.45196822	      0.23479888	      0.32401875	      0.11584696	      0.20261733	      0.15526928	      0.02618634	      0.43174435	      0.02619146	      0.10157466	      0.02618508	      0.13074558	      0.20347449	      0.08415212	      0.22637028	      0.11557726	      0.29364332	      0.14893792	      0.02656477	      0.08195553	      0.02620263	      0.06274333	      0.02618508	      0.33754383	      0.22702058	      0.10736205	      0.26040229	      0.12346378	      0.34695878	      0.15586377	      0.02618519	      0.07880640	      0.02618974	      0.07192696	      0.50061731	      0.05933638	      0.46619762	      0.02462510	      0.57918697	      0.02407221	      0.26284269	      0.11155624	      0.45833214	      0.09583161	      0.51711768	      0.09788675	      0.47514320	      0.09128701	      0.49637118	      0.05928552	      0.50477410	      0.06362608	      0.71088546	      0.05990511	      0.01000000	      0.03766123	      0.01000000	      0.03580033	      0.01000000	      0.04607708	      0.19106014	      0.08124700	      0.01000000	      0.06102045	      0.01000000	      0.06190476	      0.01000000	      0.07631478	      0.01000000	      0.09645588	      0.01000000	      0.10434462	      0.13113301	      0.13379806	      0.05989739	      0.12323958	      0.02625249	      0.09481990	      0.03943575	      0.08392184	      0.14714462	      0.13136140	      0.07473769	      0.10833744
      0.06556560	     30.00000000	      0.00000000	      0.00000000	      0.00000000	    -15.26286285	      5.14397339	     12.85719118	     -0.41690616	      0.90700451	      0.35359226	     50.90830852	     -6.61137393	     -2.99897247	    -59.61340708	    -59.61340708	     27.90302626	     13.36906608	      0.00001318	     52.13915936	     -0.00000000	     -9.99811353	   -101.98648811	   -101.98648811	      6.49999992	      0.00000000	      0.00000000	    -11.35877122	     -6.09475285	     -7.31158011	     -0.00000000	     -8.91003344	      0.00000000	     72.06682857	     46.23690339	     -0.00000000	      4.87402477	      0.00000000	     -8.91003344	     -0.00000000	     72.06682857	     46.23690339	     -0.00000000	      4.87402477	      0.00000000	      0.00000000	      0.00000000	      0.00000000	    -29.35863959	    -46.00465462	   -137.58531012	      0.25730016	     -2.90934656	      0.40935856	    517.48815117	    106.76280573	     89.97299451	   -853.13243474	   -853.13243474	    228.87627128	    214.13877637	      0.00000000	     -0.00000000	     -0.00000000	     -0.00000000	     -0.00000000	      0.00000000	      0.00000000	     -0.00000000	      0.00000000	    -13.69392228	     41.58857174	    156.18913919	     -0.00000000	     -0.00000000	      0.00000000	      0.00000000	     -0.00000000	     -0.00000000	     -0.00000000	      0.00000000	     -0.00000000	     -0.00000000	      0.00000000	      0.00000000	     -0.00000000	      0.00000000	      0.04559199	      0.05014114	      0.21370953	      0.09293172	      0.41834945	      0.07730950	      0.04375245	      0.06849709	      0.06610899	      0.05930696	      0.25080310	      0.04014722	      0.15890095	      0.06954179	      0.45177730	      0.23474609	      0.32389905	      0.11584807	      0.20215778	      0.15514128	      0.02612701	      0.43149658	      0.02613212	      0.10150862	      0.02612576	      0.13073919	      0.20389939	      0.08420846	      0.22677407	      0.11566597	      0.29414680	      0.14906273	      0.02650400	      0.08188040	      0.02614324	      0.06269270	      0.02612576	      0.33744504	      0.22694859	      0.10744855	      0.26034533	      0.12357003	      0.34693652	      0.15600643	      0.02612586	      0.07873145	      0.02613040	      0.07185261	      0.50109950	      0.05941660	      0.46655228	      0.02465849	      0.57979564	      0.02411668	      0.26308418	      0.11160102	      0.45982110	      0.09596782	      0.51875501	      0.09802912	      0.47668065	      0.09142136	      0.49625041	      0.05925282	      0.50464666	      0.06358965	      0.71161059	      0.05992461	      0.01000000	      0.03765868	      0.01000000	      0.03579227	      0.01000000	      0.04607470	      0.19066757	      0.08113425	      0.01000000	      0.06104951	      0.01000000	      0.06193257	      0.01000000	      0.07625536	      0.01000000	      0.09637946	      0.01000000	      0.10426158	      0.13108301	      0.13378666	      0.06009500	      0.12325723	      0.02619433	      0.09482305	      0.03932390	      0.08390623	      0.14693752	      0.13131581	      0.07493459	      0.10836615
      0.06577175	     30.00000000	      0.00000000	      0.00000000	      0.00000000	    -15.26891371	      5.13448439	     12.82884494	     -0.41685307	      0.90640449	      0.35367662	     51.01495127	     -6.58934949	     -2.98048193	    -59.78919564	    -59.78919564	     27.94999545	     13.41320988	      0.00001318	     52.13915936	     -0.00000000	     -9.99811353	   -101.98648811	   -101.98648811	      6.49999992	      0.00000000	      0.00000000	    -11.36159313	     -6.08617229	     -7.27939232	     -0.00000000	     -8.91003344	      0.00000000	     72.06682857	     46.23690339	     -0.00000000	      4.87402477	      0.00000000	     -8.91003344	     -0.00000000	     72.06682857	     46.23690339	     -0.00000000	      4.87402477	      0.00000000	      0.00000000	      0.00000000	      0.00000000	    -29.34301030	    -46.05177949	   -137.41227822	      0.25773752	     -2.91165457	      0.40904173	    517.09420596	    106.90424387	     89.41084723	   -852.25964996	   -852.25964996	    226.79150470	    214.11759047	      0.00000000	     -0.00000000	     -0.00000000	     -0.00000000	     -0.00000000	      0.00000000	      0.00000000	     -0.00000000	      0.00000000	    -13.68258502	     41.65475086	    156.07683391	     -0.00000000	     -0.00000000	      0.00000000	      0.00000000	     -0.00000000	     -0.00000000	     -0.00000000	      0.00000000	     -0.00000000	     -0.00000000	      0.00000000	      0.00000000	     -0.00000000	      0.00000000	      0.04548790	      0.05014140	      0.21360916	      0.09296587	      0.41843496	      0.07736499	      0.04365421	      0.06848660	      0.06594728	      0.05930863	      0.25067859	      0.04016569	      0.15858975	      0.06951133	      0.45163220	      0.23470621	      0.32380959	      0.11584899	      0.20180872	      0.15504463	      0.02608226	      0.43130908	      0.02608735	      0.10145877	      0.02608101	      0.13073438	      0.20421480	      0.08425112	      0.22707139	      0.11573311	      0.29451595	      0.14915716	      0.02645815	      0.08182354	      0.02609844	      0.06265444	      0.02608101	      0.33737043	      0.22689215	      0.10751386	      0.26030000	      0.12365028	      0.34691596	      0.15611417	      0.02608112	      0.07867472	      0.02608564	      0.07179634	      0.50172761	      0.05947963	      0.46681467	      0.02468376	      0.58024600	      0.02415033	      0.26326312	      0.11163467	      0.46094129	      0.09607060	      0.51998746	      0.09813659	      0.47783685	      0.09152272	      0.49615580	      0.05922805	      0.50454685	      0.06356205	      0.71215665	      0.05993957	      0.01000000	      0.03765676	      0.01000000	      0.03578619	      0.01000000	      0.04607293	      0.19036976	      0.08104897	      0.01000000	      0.06107147	      0.01000000	      0.06195357	      0.01000000	      0.07621038	      0.01000000	      0.09632162	      0.01000000	      0.10419873	      0.13104497	      0.13377803	      0.06024495	      0.12327060	      0.02615031	      0.09482542	      0.03923955	      0.08389447	      0.14678003	      0.13128131	      0.07508276	      0.10838793
      0.06597791	     30.00000000	      0.00000000	      0.00000000	      0.00000000	    -15.27496135	      5.12498566	     12.80053439	     -0.41679990	      0.90580400	      0.35376091	     51.12151307	     -6.56729615	     -2.96210724	    -59.96480447	    -59.96480447	     27.99653597	     13.45734963	      0.00001318	     52.13915936	     -0.00000000	     -9.99811353	   -101.98648811	   -101.98648811	      6.49999992	      0.00000000	      0.00000000	    -11.36441273	     -6.07757806	     -7.24722771	     -0.00000000	     -8.91003344	      0.00000000	     72.06682857	     46.23690339	     -0.00000000	      4.87402477	      0.00000000	     -8.91003344	     -0.00000000	     72.06682857	     46.23690339	     -0.00000000	      4.87402477	      0.00000000	      0.00000000	      0.00000000	      0.00000000	    -29.32741412	    -46.09907828	   -137.23922503	      0.25817385	     -2.91396091	      0.40872503	    516.70274310	    107.04324094	     88.84902112	   -851.38883043	   -851.38883043	    224.71755594	    214.09940447	      0.00000000	     -0.00000000	     -0.00000000	     -0.00000000	     -0.00000000	      0.00000000	      0.00000000	     -0.00000000	      0.00000000	    -13.67139682	     41.72121602	    155.96425580	     -0.00000000	     -0.00000000	      0.00000000	      0.00000000	     -0.00000000	     -0.00000000	     -0.00000000	      0.00000000	     -0.00000000	     -0.00000000	      0.00000000	      0.00000000	     -0.00000000	      0.00000000	      0.04538413	      0.05014164	      0.21350734	      0.09299995	      0.41851890	      0.07742039	      0.04355628	      0.06847610	      0.06578565	      0.05931028	      0.25055242	      0.04018412	      0.15827823	      0.06948089	      0.45148660	      0.23466640	      0.32372113	      0.11584996	      0.20145859	      0.15494817	      0.02603764	      0.43112162	      0.02604272	      0.10140903	      0.02603639	      0.13072961	      0.20452364	      0.08429380	      0.22736141	      0.11580025	      0.29487503	      0.14925156	      0.02641244	      0.08176669	      0.02605377	      0.06261623	      0.02603639	      0.33729595	      0.22683409	      0.10757904	      0.26025282	      0.12373038	      0.34689228	      0.15622172	      0.02603650	      0.07861800	      0.02604101	      0.07174008	      0.50209595	      0.05954088	      0.46707178	      0.02470903	      0.58068759	      0.02418397	      0.26343878	      0.11166810	      0.46205574	      0.09617313	      0.52121413	      0.09824380	      0.47898673	      0.09162381	      0.49605846	      0.05920327	      0.50444415	      0.06353444	      0.71270044	      0.05995471	      0.01000000	      0.03765483	      0.01000000	      0.03578013	      0.01000000	      0.04607119	      0.19007136	      0.08096374	      0.01000000	      0.06109341	      0.01000000	      0.06197451	      0.01000000	      0.07616541	      0.01000000	      0.09626377	      0.01000000	      0.10413588	      0.13100676	      0.13376940	      0.06039522	      0.12328397	      0.02610628	      0.09482778	      0.03915546	      0.08388275	      0.14662189	      0.13124683	      0.07523020	      0.10840974
